<?xml version="1.0"?>
<svg xmlns="http://www.w3.org/2000/svg" xmlns:xlink="http://www.w3.org/1999/xlink" xmlns:svgjs="http://svgjs.com/svgjs" version="1.1" width="512" height="512" x="0" y="0" viewBox="0 0 512.392 512.392" style="enable-background:new 0 0 512 512" xml:space="preserve" class=""><g><g xmlns="http://www.w3.org/2000/svg"><path d="m257.189 141.305c-6.939-20.253-25.21-33.305-46.588-33.305-.075 0-.15 0-.225.001-21.475.092-39.738 13.32-46.527 33.703l-42.628 127.976c-3.491 10.479 2.175 21.805 12.655 25.295 10.479 3.495 21.805-2.174 25.295-12.654l8.767-26.32h86.264l9.073 26.482c2.844 8.302 10.608 13.523 18.919 13.523 2.15 0 4.336-.35 6.484-1.086 10.449-3.58 16.018-14.953 12.438-25.402zm-75.927 74.695 20.537-61.655c1.831-5.495 6.267-6.334 8.748-6.345 2.489.011 6.924.79 8.801 6.27l21.15 61.73z" fill="#000000" data-original="#000000" style="" class=""/><path d="m506.298 478.21-90-89.5c-7.831-7.789-20.495-7.752-28.284.079-7.789 7.832-7.753 20.495.079 28.284l90 89.5c3.902 3.881 9.002 5.818 14.102 5.818 5.137 0 10.274-1.968 14.182-5.897 7.789-7.832 7.754-20.495-.079-28.284z" fill="#000000" data-original="#000000" style="" class=""/><path d="m211.196 0c-116.346 0-211 94.654-211 211s94.654 211 211 211 211-94.654 211-211-94.655-211-211-211zm0 382c-94.29 0-171-76.71-171-171s76.71-171 171-171 171 76.71 171 171-76.711 171-171 171z" fill="#000000" data-original="#000000" style="" class=""/></g></g></svg>
