<?xml version="1.0"?>
<svg xmlns="http://www.w3.org/2000/svg" xmlns:xlink="http://www.w3.org/1999/xlink" xmlns:svgjs="http://svgjs.com/svgjs" version="1.1" width="512" height="512" x="0" y="0" viewBox="0 0 512 512" style="enable-background:new 0 0 512 512" xml:space="preserve" class=""><g><g xmlns="http://www.w3.org/2000/svg"><path d="m350.394 176.606c2.928 2.93 6.767 4.394 10.606 4.394s7.678-1.464 10.606-4.394l60-60c5.858-5.858 5.858-15.355 0-21.213-5.857-5.858-15.355-5.858-21.213 0l-49.393 49.394-19.394-19.393c-5.857-5.858-15.355-5.858-21.213 0s-5.858 15.355 0 21.213z" fill="#FFFFFF" data-original="#000000" style="" class=""/><path d="m82.967 429.033c5.857 5.858 15.355 5.859 21.213 0l31.82-31.82 31.82 31.82c5.857 5.858 15.355 5.859 21.213 0 5.858-5.858 5.858-15.355 0-21.213l-31.82-31.82 31.82-31.82c5.858-5.858 5.858-15.355 0-21.213-5.857-5.858-15.355-5.858-21.213 0l-31.82 31.82-31.82-31.82c-5.857-5.858-15.355-5.858-21.213 0s-5.858 15.355 0 21.213l31.82 31.82-31.82 31.82c-5.858 5.858-5.858 15.355 0 21.213z" fill="#FFFFFF" data-original="#000000" style="" class=""/><circle cx="15" cy="497" r="15" fill="#FFFFFF" data-original="#000000" style="" class=""/><circle cx="497" cy="15" r="15" fill="#FFFFFF" data-original="#000000" style="" class=""/><path d="m15 361c8.284 0 15-6.716 15-15v-30c0-8.284-6.716-15-15-15s-15 6.716-15 15v30c0 8.284 6.716 15 15 15z" fill="#FFFFFF" data-original="#000000" style="" class=""/><path d="m497 61c-8.284 0-15 6.716-15 15v30c0 8.284 6.716 15 15 15s15-6.716 15-15v-30c0-8.284-6.716-15-15-15z" fill="#FFFFFF" data-original="#000000" style="" class=""/><path d="m497 151c-8.284 0-15 6.716-15 15v30c0 8.284 6.716 15 15 15s15-6.716 15-15v-30c0-8.284-6.716-15-15-15z" fill="#FFFFFF" data-original="#000000" style="" class=""/><path d="m15 451c8.284 0 15-6.716 15-15v-30c0-8.284-6.716-15-15-15s-15 6.716-15 15v30c0 8.284 6.716 15 15 15z" fill="#FFFFFF" data-original="#000000" style="" class=""/><path d="m61 497c0 8.284 6.716 15 15 15h30c8.284 0 15-6.716 15-15s-6.716-15-15-15h-30c-8.284 0-15 6.716-15 15z" fill="#FFFFFF" data-original="#000000" style="" class=""/><path d="m151 497c0 8.284 6.716 15 15 15h30c8.284 0 15-6.716 15-15s-6.716-15-15-15h-30c-8.284 0-15 6.716-15 15z" fill="#FFFFFF" data-original="#000000" style="" class=""/><path d="m361 15c0-8.284-6.716-15-15-15h-30c-8.284 0-15 6.716-15 15s6.716 15 15 15h30c8.284 0 15-6.716 15-15z" fill="#FFFFFF" data-original="#000000" style="" class=""/><path d="m451 15c0-8.284-6.716-15-15-15h-30c-8.284 0-15 6.716-15 15s6.716 15 15 15h30c8.284 0 15-6.716 15-15z" fill="#FFFFFF" data-original="#000000" style="" class=""/><path d="m497 241h-226v-75c0-8.284-6.716-15-15-15h-1.771c-20.845 0-42 7.407-62.88 22.015-7.464 5.224-16.23 7.985-25.349 7.985-24.813 0-45-20.187-45-45s20.187-45 45-45c9.119 0 17.885 2.761 25.351 7.986 20.878 14.607 42.034 22.014 62.878 22.014h1.771c8.284 0 15-6.716 15-15v-91c0-8.284-6.716-15-15-15h-241c-8.284 0-15 6.716-15 15v241c0 8.284 6.716 15 15 15h226v75c0 8.284 6.716 15 15 15h1.771c20.845 0 42-7.407 62.88-22.015 7.464-5.224 16.23-7.985 25.349-7.985 24.813 0 45 20.187 45 45s-20.187 45-45 45c-9.119 0-17.885-2.761-25.351-7.986-20.879-14.607-42.035-22.014-62.878-22.014h-1.771c-8.284 0-15 6.716-15 15v91c0 8.284 6.716 15 15 15h241c8.284 0 15-6.716 15-15v-241c0-8.284-6.716-15-15-15zm-467-211h211v59.517c-10.536-2.327-21.402-7.382-32.45-15.111-12.533-8.77-27.246-13.406-42.55-13.406-41.355 0-75 33.645-75 75s33.645 75 75 75c15.304 0 30.017-4.636 42.549-13.405 11.048-7.73 21.915-12.785 32.451-15.112v58.517h-211zm452 452h-211v-59.517c10.536 2.327 21.402 7.382 32.45 15.111 12.533 8.77 27.246 13.406 42.55 13.406 41.355 0 75-33.645 75-75s-33.645-75-75-75c-15.304 0-30.017 4.636-42.549 13.405-11.048 7.73-21.915 12.785-32.451 15.112v-58.517h211z" fill="#FFFFFF" data-original="#000000" style="" class=""/></g></g></svg>
