<svg id="Componente_3_1" data-name="Componente 3 – 1" xmlns="http://www.w3.org/2000/svg" xmlns:xlink="http://www.w3.org/1999/xlink" width="720" height="901" viewBox="0 0 720 901">
  <defs>
    <linearGradient id="linear-gradient" x1="0.57" y1="0.089" x2="0.352" y2="0.884" gradientUnits="objectBoundingBox">
      <stop offset="0" stop-opacity="0"/>
      <stop offset="1"/>
    </linearGradient>
    <linearGradient id="linear-gradient-2" x1="0.483" y1="0.054" x2="0.559" y2="1.067" xlink:href="#linear-gradient"/>
    <linearGradient id="linear-gradient-3" x1="0.339" y1="0.156" x2="0.482" y2="0.908" xlink:href="#linear-gradient"/>
    <linearGradient id="linear-gradient-4" x1="0.472" y1="0.317" x2="0.792" y2="0.998" xlink:href="#linear-gradient"/>
    <linearGradient id="linear-gradient-5" x1="0.677" y1="0.422" x2="0.163" y2="0.676" xlink:href="#linear-gradient"/>
    <linearGradient id="linear-gradient-6" x1="0.517" y1="0.161" x2="0.463" y2="1.58" xlink:href="#linear-gradient"/>
    <linearGradient id="linear-gradient-7" x1="0.65" y1="0.352" x2="0.28" y2="1.455" xlink:href="#linear-gradient"/>
    <linearGradient id="linear-gradient-8" x1="0.199" y1="0.422" x2="0.746" y2="1.098" xlink:href="#linear-gradient"/>
    <linearGradient id="linear-gradient-9" x1="0.96" y1="0.245" x2="0.281" y2="0.647" xlink:href="#linear-gradient"/>
    <linearGradient id="linear-gradient-10" x1="0.882" y1="0.284" x2="0.136" y2="0.832" xlink:href="#linear-gradient"/>
    <linearGradient id="linear-gradient-11" x1="0.456" y1="0.774" x2="0.247" y2="-0.302" xlink:href="#linear-gradient"/>
    <linearGradient id="linear-gradient-12" x1="0.341" y1="0.29" x2="0.267" y2="-0.04" xlink:href="#linear-gradient"/>
    <linearGradient id="linear-gradient-13" x1="0.525" y1="0.228" x2="0.472" y2="0.808" xlink:href="#linear-gradient"/>
    <linearGradient id="linear-gradient-14" x1="0.691" y1="0.432" x2="-0.512" y2="1.95" xlink:href="#linear-gradient"/>
  </defs>
  <g id="Grupo_12" data-name="Grupo 12" transform="translate(76.244 39.436)">
    <g id="Grupo_11" data-name="Grupo 11" transform="translate(0 0)">
      <g id="Grupo_5" data-name="Grupo 5" transform="translate(548.401 4.099)">
        <path id="Caminho_23" data-name="Caminho 23" d="M2142.512,1418.586v14.337h-37.664v-17.836h37.664Zm6.205,9.02h-4.18v-6.979h4.18Z" transform="translate(-2104.848 -1415.087)" fill="#333"/>
      </g>
      <g id="Grupo_6" data-name="Grupo 6" transform="translate(497.092)">
        <path id="Caminho_24" data-name="Caminho 24" d="M2071.625,1410.987a25.8,25.8,0,0,0-18.1,7.391l3.861,3.419a20.334,20.334,0,0,1,28.867.379l4.018-3.308A25.971,25.971,0,0,0,2071.625,1410.987Z" transform="translate(-2053.522 -1410.987)" fill="#333"/>
        <path id="Caminho_25" data-name="Caminho 25" d="M2065.743,1430.95l5.886,5.238,6.078-5.064a8.328,8.328,0,0,0-6.078-2.579A8.476,8.476,0,0,0,2065.743,1430.95Z" transform="translate(-2053.526 -1410.993)" fill="#333"/>
        <path id="Caminho_26" data-name="Caminho 26" d="M2059.98,1425.011l3.452,2.865a11.769,11.769,0,0,1,16.648.223l3.544-2.771a16.667,16.667,0,0,0-23.644-.316Z" transform="translate(-2053.524 -1410.99)" fill="#333"/>
      </g>
      <g id="Grupo_9" data-name="Grupo 9" transform="translate(425.749 7.233)">
        <g id="Grupo_7" data-name="Grupo 7" transform="translate(52.479)">
          <path id="Caminho_27" data-name="Caminho 27" d="M2040.443,1429.774A5.776,5.776,0,1,1,2046.2,1424,5.79,5.79,0,0,1,2040.443,1429.774Zm0-10.412A4.645,4.645,0,1,0,2045.1,1424,4.646,4.646,0,0,0,2040.443,1419.362Z" transform="translate(-2034.652 -1418.222)" fill="#333"/>
        </g>
        <g id="Grupo_8" data-name="Grupo 8" transform="translate(39.249)">
          <path id="Caminho_28" data-name="Caminho 28" d="M2027.177,1429.774a5.776,5.776,0,1,1,5.76-5.775A5.783,5.783,0,0,1,2027.177,1429.774Zm0-10.412A4.645,4.645,0,1,0,2031.8,1424,4.619,4.619,0,0,0,2027.177,1419.362Z" transform="translate(-2021.418 -1418.222)" fill="#333"/>
        </g>
        <path id="Caminho_29" data-name="Caminho 29" d="M2008.689,1424a5.223,5.223,0,1,1,5.224,5.205A5.213,5.213,0,0,1,2008.689,1424Z" transform="translate(-1982.165 -1418.222)" fill="#333"/>
        <path id="Caminho_30" data-name="Caminho 30" d="M1995.391,1424a5.223,5.223,0,1,1,5.222,5.205A5.213,5.213,0,0,1,1995.391,1424Z" transform="translate(-1982.16 -1418.222)" fill="#333"/>
        <path id="Caminho_31" data-name="Caminho 31" d="M1982.156,1424a5.207,5.207,0,1,1,5.191,5.205A5.208,5.208,0,0,1,1982.156,1424Z" transform="translate(-1982.156 -1418.222)" fill="#333"/>
      </g>
      <g id="Grupo_10" data-name="Grupo 10" transform="translate(0 4.32)">
        <path id="Caminho_32" data-name="Caminho 32" d="M1559.688,1430.217a3.4,3.4,0,0,0,2.151.681,3.031,3.031,0,0,0,2.786-1.616,11.281,11.281,0,0,0,1.046-5l-.033-.033a4.666,4.666,0,0,1-1.646,1.725,4.378,4.378,0,0,1-2.311.633,6.352,6.352,0,0,1-2.342-.412,4.812,4.812,0,0,1-1.677-1.186,4.508,4.508,0,0,1-1.044-1.8,7.606,7.606,0,0,1-.349-2.31,5.727,5.727,0,0,1,.412-2.262,5,5,0,0,1,1.171-1.757,5.222,5.222,0,0,1,1.772-1.156,6.292,6.292,0,0,1,2.278-.411,7.168,7.168,0,0,1,2.248.379,4.222,4.222,0,0,1,1.865,1.284,6.684,6.684,0,0,1,1.268,2.516,14.268,14.268,0,0,1,.443,4.018,13.347,13.347,0,0,1-1.394,6.806,4.847,4.847,0,0,1-4.495,2.372,5.757,5.757,0,0,1-3.608-1.091,4.472,4.472,0,0,1-1.612-3.308h2.056A2.5,2.5,0,0,0,1559.688,1430.217Zm5.413-10.683a4.018,4.018,0,0,0-.665-1.233,3.576,3.576,0,0,0-1.141-.871,3.449,3.449,0,0,0-1.517-.3,3.306,3.306,0,0,0-1.551.332,3.063,3.063,0,0,0-1.046.9,4.221,4.221,0,0,0-.568,1.3,5.978,5.978,0,0,0-.19,1.52,4.038,4.038,0,0,0,.253,1.36,4.112,4.112,0,0,0,.729,1.138,3.456,3.456,0,0,0,1.044.824,3.231,3.231,0,0,0,1.392.285,3.6,3.6,0,0,0,1.427-.285,3.378,3.378,0,0,0,1.107-.824,3.948,3.948,0,0,0,.7-1.2,4.6,4.6,0,0,0,.253-1.455A5.8,5.8,0,0,0,1565.1,1419.535Z" transform="translate(-1556.269 -1415.309)" fill="#333"/>
        <path id="Caminho_33" data-name="Caminho 33" d="M1570.864,1422.621v-2.673h2.69v2.673Zm2.69,7.139v2.674h-2.69v-2.674Z" transform="translate(-1556.274 -1415.311)" fill="#333"/>
        <path id="Caminho_34" data-name="Caminho 34" d="M1587.989,1426.608v1.8h-2.279v4.02h-1.962v-4.02h-7.469v-1.98l7.786-11.124h1.645v11.3Zm-4.242-8.372h0l-5.729,8.372h5.729Z" transform="translate(-1556.276 -1415.309)" fill="#333"/>
        <path id="Caminho_35" data-name="Caminho 35" d="M1595.559,1432.432v-12.265H1591.1v-1.647a9.985,9.985,0,0,0,1.708-.127,5.1,5.1,0,0,0,1.456-.49,3.8,3.8,0,0,0,1.142-1,3.737,3.737,0,0,0,.632-1.6h1.583v17.124Z" transform="translate(-1556.28 -1415.309)" fill="#333"/>
      </g>
    </g>
  </g>
  <rect id="Retângulo_3" data-name="Retângulo 3" width="720" height="901" fill="#eeedee"/>
  <g id="Grupo_2" data-name="Grupo 2" transform="translate(0 615.922)">
    <path id="Caminho_1" data-name="Caminho 1" d="M2158.781,2103.286c0,38.31-42.97,73.081-112.84,98.659-73.46,26.893-176.662,43.627-290.969,43.627-106.231,0-202.883-14.456-274.972-38.083V1999.083c72.089-23.628,168.741-38.083,274.972-38.083,100.54,0,192.48,12.946,263.161,34.359,48.481,14.691,86.953,33.366,111.3,54.585C2148.366,2066.418,2158.781,2084.421,2158.781,2103.286Z" transform="translate(-1480 -1961)" fill="#eea31c"/>
  </g>
  <path id="Caminho_2" data-name="Caminho 2" d="M2092.583,2116.9c0,41.976-38.779,80.074-101.835,108.1-66.3,29.467-159.432,47.8-262.592,47.8-95.871,0-183.1-15.839-248.155-41.728V2002.728c65.059-25.889,152.284-41.727,248.155-41.727,90.735,0,173.708,14.185,237.5,37.647,43.752,16.1,78.473,36.56,100.446,59.809C2083.184,2076.506,2092.583,2096.232,2092.583,2116.9Z" transform="translate(-1479.956 -1376.71)" fill="url(#linear-gradient)" style="mix-blend-mode: overlay;isolation: isolate"/>
  <rect id="Retângulo_4" data-name="Retângulo 4" width="156.816" height="145.858" transform="translate(316.108 900.614) rotate(180)" fill="#e2e1cc"/>
  <rect id="Retângulo_5" data-name="Retângulo 5" width="28.446" height="54.703" transform="translate(252.652 869.615) rotate(180)" fill="#4356a5"/>
  <rect id="Retângulo_6" data-name="Retângulo 6" width="11.758" height="22.611" transform="translate(194.71 801.05) rotate(180)" fill="#4356a5"/>
  <rect id="Retângulo_7" data-name="Retângulo 7" width="50.327" height="133.809" transform="translate(108.965 755.099)" fill="#f1f0d3"/>
  <rect id="Retângulo_8" data-name="Retângulo 8" width="11.758" height="22.611" transform="translate(293.906 801.05) rotate(180)" fill="#4356a5"/>
  <rect id="Retângulo_9" data-name="Retângulo 9" width="11.758" height="36.469" transform="translate(138.548 857.568) rotate(180)" fill="#4356a5"/>
  <ellipse id="Elipse_11" data-name="Elipse 11" cx="4.96" cy="5.835" rx="4.96" ry="5.835" transform="translate(127.709 800.676)" fill="#4356a5"/>
  <path id="Caminho_3" data-name="Caminho 3" d="M1796.151,2127.342,1761.87,2077H1612.713l26.623,50.327Z" transform="translate(-1480.043 -1372.229)" fill="#4356a5"/>
  <path id="Caminho_4" data-name="Caminho 4" d="M1589,2127.328,1612.34,2077l26.987,50.327Z" transform="translate(-1480.036 -1372.229)" fill="#7387c6"/>
  <g id="Grupo_3" data-name="Grupo 3" transform="translate(322.895 622.798)">
    <path id="Caminho_5" data-name="Caminho 5" d="M2199.872,2005.706V2261.99a558.471,558.471,0,0,1-110.464,10.706c-48.834,0-94.81-5.927-135.046-16.376C1864.281,2232.931,1803,2186.857,1803,2133.848c0-17.355,6.568-33.968,18.564-49.283,21.393-27.309,60.041-50.5,109.495-66.428,45.355-14.622,99.8-23.136,158.349-23.136A558.527,558.527,0,0,1,2199.872,2005.706Z" transform="translate(-1803 -1995)" fill="#f4ba18"/>
    <path id="Caminho_6" data-name="Caminho 6" d="M2199.872,2005.706V2261.99a558.471,558.471,0,0,1-110.464,10.706c-48.834,0-94.81-5.927-135.046-16.376C1864.281,2232.931,1803,2186.857,1803,2133.848c0-17.355,6.568-33.968,18.564-49.283,21.393-27.309,60.041-50.5,109.495-66.428,45.355-14.622,99.8-23.136,158.349-23.136A558.527,558.527,0,0,1,2199.872,2005.706Z" transform="translate(-1803 -1995)" fill="url(#linear-gradient-2)" style="mix-blend-mode: overlay;isolation: isolate"/>
  </g>
  <rect id="Retângulo_10" data-name="Retângulo 10" width="216" height="143" transform="translate(394 680)" fill="#e2e1cc"/>
  <rect id="Retângulo_11" data-name="Retângulo 11" width="39" height="74" transform="translate(482 731)" fill="#4356a5"/>
  <rect id="Retângulo_12" data-name="Retângulo 12" width="16.115" height="30.99" transform="translate(561.258 717.768)" fill="#4356a5"/>
  <rect id="Retângulo_13" data-name="Retângulo 13" width="16.115" height="30.99" transform="translate(425.302 717.768)" fill="#4356a5"/>
  <rect id="Retângulo_14" data-name="Retângulo 14" width="70" height="165" transform="translate(680 850) rotate(180)" fill="#f1f0d3"/>
  <rect id="Retângulo_15" data-name="Retângulo 15" width="16.115" height="30.99" transform="translate(425.302 717.768)" fill="#4356a5"/>
  <rect id="Retângulo_16" data-name="Retângulo 16" width="16.115" height="49.984" transform="translate(638.233 733.762)" fill="#4356a5"/>
  <g id="Grupo_4" data-name="Grupo 4" transform="translate(193.937 149.951)">
    <path id="Caminho_7" data-name="Caminho 7" d="M2169.319,2057.836l-338.89-.01H1674l37.988-87.971,80.974-212.931h24.992s4-35.988,8-37.988,26.991-8,26.991-8l13,45.985,50.984-147.952,5.778-7.188c.01-.01.02-.03.03-.04L1986.9,1522h35.989l21.993,61.98-12,39.987-14,53.982,34.509-5.888,6.478,23.883,29.99,104.966,33.989,49.984-18.994,107.965Z" transform="translate(-1674 -1522)" fill="#f9e1a5"/>
    <path id="Caminho_8" data-name="Caminho 8" d="M2169.319,2057.836l-338.89-.01H1674l37.988-87.971,80.974-212.931h24.992s4-35.988,8-37.988,26.991-8,26.991-8l13,45.985,50.984-147.952,5.778-7.188c.01-.01.02-.03.03-.04L1986.9,1522h35.989l21.993,61.98-12,39.987-14,53.982,34.509-5.888,6.478,23.883,29.99,104.966,33.989,49.984-18.994,107.965Z" transform="translate(-1674 -1522)" fill="url(#linear-gradient-3)" style="mix-blend-mode: overlay;isolation: isolate"/>
    <path id="Caminho_9" data-name="Caminho 9" d="M2199.942,1769.89v287.946h-30.51l-64.459-98.978,18.994-107.965-33.989-49.984-29.99-104.966v-24.992l-6.478,1.109L2019,1677.95l14-53.982,12-39.987L2023,1522l36.988,29.99,44.986,31.99,27.99,51.983,12,141.954,31.99-20.994Z" transform="translate(-1674.112 -1522)" fill="#da5f26"/>
    <path id="Caminho_10" data-name="Caminho 10" d="M2199.942,1769.89v287.946h-30.51l-64.459-98.978,18.994-107.965-33.989-49.984-29.99-104.966v-24.992l-6.478,1.109L2019,1677.95l14-53.982,12-39.987L2023,1522l36.988,29.99,44.986,31.99,27.99,51.983,12,141.954,31.99-20.994Z" transform="translate(-1674.112 -1522)" fill="url(#linear-gradient-4)" style="mix-blend-mode: overlay;isolation: isolate"/>
    <path id="Caminho_11" data-name="Caminho 11" d="M2123.966,1789.913l-63.979-93.969-6.478-23.883L2019,1677.95l14-53.982,12-39.987L2023,1522l36.988,29.99,44.986,31.99Z" transform="translate(-1674.112 -1522)" fill="#eea31c"/>
    <path id="Caminho_12" data-name="Caminho 12" d="M2123.966,1789.913l-63.979-93.969-6.478-23.883L2019,1677.95l14-53.982,12-39.987L2023,1522l36.988,29.99,44.986,31.99Z" transform="translate(-1674.112 -1522)" fill="url(#linear-gradient-5)" style="mix-blend-mode: overlay;isolation: isolate"/>
    <path id="Caminho_13" data-name="Caminho 13" d="M1892.976,1842.958l-37.987,15.995L1818,1756.985s4-35.988,8-37.988,26.991-8,26.991-8l13,45.985Z" transform="translate(-1674.047 -1522.061)" fill="#da5f26"/>
    <path id="Caminho_14" data-name="Caminho 14" d="M1892.976,1842.958l-37.987,15.995L1818,1756.985s4-35.988,8-37.988,26.991-8,26.991-8l13,45.985Z" transform="translate(-1674.047 -1522.061)" fill="url(#linear-gradient-6)" style="mix-blend-mode: overlay;isolation: isolate"/>
    <path id="Caminho_15" data-name="Caminho 15" d="M1854.942,1858.967,1830.429,2057.9H1674l37.988-87.972L1792.962,1757h24.992Z" transform="translate(-1674 -1522.076)" fill="#e78d1f"/>
    <path id="Caminho_16" data-name="Caminho 16" d="M1854.942,1858.967,1830.429,2057.9H1674l37.988-87.972L1792.962,1757h24.992Z" transform="translate(-1674 -1522.076)" fill="url(#linear-gradient-7)" style="mix-blend-mode: overlay;isolation: isolate"/>
    <path id="Caminho_17" data-name="Caminho 17" d="M1892.98,1843l57.462,214.95L1830,2057.93l24.992-198.935Z" transform="translate(-1674.051 -1522.104)" fill="#e17623"/>
    <path id="Caminho_18" data-name="Caminho 18" d="M1892.98,1843l57.462,214.95L1830,2057.93l24.992-198.935Z" transform="translate(-1674.051 -1522.104)" fill="url(#linear-gradient-8)" style="mix-blend-mode: overlay;isolation: isolate"/>
    <path id="Caminho_19" data-name="Caminho 19" d="M2026.952,1769.959l-76.975,287.907L1893,1842.936l-13.156-41.9,55.142-90.061s21.993-58.981,26.991-60.98,38.987-7,38.987-7l-6,54.982,13.995,34.988Z" transform="translate(-1674.067 -1522.04)" fill="#f4ba18"/>
    <path id="Caminho_20" data-name="Caminho 20" d="M2026.952,1769.959l-76.975,287.907L1893,1842.936l-13.156-41.9,55.142-90.061s21.993-58.981,26.991-60.98,38.987-7,38.987-7l-6,54.982,13.995,34.988Z" transform="translate(-1674.067 -1522.04)" fill="url(#linear-gradient-9)" style="mix-blend-mode: overlay;isolation: isolate"/>
    <path id="Caminho_21" data-name="Caminho 21" d="M2018.992,1677.97l8,91.97L2009,1732.952l-14-34.989,6-54.982L2045.984,1584Z" transform="translate(-1674.104 -1522.02)" fill="#da5f26"/>
    <path id="Caminho_22" data-name="Caminho 22" d="M2018.992,1677.97l8,91.97L2009,1732.952l-14-34.989,6-54.982L2045.984,1584Z" transform="translate(-1674.104 -1522.02)" fill="url(#linear-gradient-10)" style="mix-blend-mode: overlay;isolation: isolate"/>
  </g>
  <g id="Grupo_13" data-name="Grupo 13" transform="translate(0 459.052)">
    <path id="Caminho_36" data-name="Caminho 36" d="M2044.859,2057.737l-225.558.01-211.547.01,52.909-52.909,4.99-76.839,14.2-24.948,36.693,87.817,100.789,66.859-54.885-66.859v-45.9l-44.188-79.2,21.236,37.292,126.734,41.913s41.912,63.866,53.888,68.855S2044.859,2057.737,2044.859,2057.737Z" transform="translate(-1480.041 -1831.213)" fill="#e17623"/>
    <path id="Caminho_37" data-name="Caminho 37" d="M2044.859,2057.737l-225.558.01-211.547.01,52.909-52.909,4.99-76.839,14.2-24.948,36.693,87.817,100.789,66.859-54.885-66.859v-45.9l-44.188-79.2,21.236,37.292,126.734,41.913s41.912,63.866,53.888,68.855S2044.859,2057.737,2044.859,2057.737Z" transform="translate(-1480.041 -1831.213)" fill="url(#linear-gradient-11)" style="mix-blend-mode: overlay;isolation: isolate"/>
    <path id="Caminho_38" data-name="Caminho 38" d="M1817.294,2057.726,1716.5,1990.866l-36.693-87.816-14.2,24.948-4.99,76.839-52.909,52.909H1480a.031.031,0,0,1,.01-.02c.01-.01.01-.01.01-.019a2.875,2.875,0,0,0,.19-.29c.1-.14.219-.339.379-.579l.25-.389c5.488-8.492,37.2-57.411,70.053-105.839l.1-.15c33.909-49.995,69.005-99.432,77.7-103.294a92.133,92.133,0,0,1,11.475-3.972c22.4-6.456,58.378-11.994,58.378-11.994l10.888,19.12.189.339,8.6,15.1,44.188,79.2v45.9Z" transform="translate(-1480 -1831.201)" fill="#f4ba18"/>
    <path id="Caminho_39" data-name="Caminho 39" d="M1817.294,2057.726,1716.5,1990.866l-36.693-87.816-14.2,24.948-4.99,76.839-52.909,52.909H1480a.031.031,0,0,1,.01-.02c.01-.01.01-.01.01-.019a2.875,2.875,0,0,0,.19-.29c.1-.14.219-.339.379-.579l.25-.389c5.488-8.492,37.2-57.411,70.053-105.839l.1-.15c33.909-49.995,69.005-99.432,77.7-103.294a92.133,92.133,0,0,1,11.475-3.972c22.4-6.456,58.378-11.994,58.378-11.994l10.888,19.12.189.339,8.6,15.1,44.188,79.2v45.9Z" transform="translate(-1480 -1831.201)" fill="url(#linear-gradient-12)" style="mix-blend-mode: overlay;isolation: isolate"/>
    <path id="Caminho_40" data-name="Caminho 40" d="M2044.9,2057.749l-225.558.01-56.85-66.869v-45.9l-22.952-41.913,126.734,41.913s41.912,63.866,53.887,68.855S2044.9,2057.749,2044.9,2057.749Z" transform="translate(-1480.084 -1831.225)" fill="#eea31c"/>
    <path id="Caminho_41" data-name="Caminho 41" d="M2044.9,2057.749l-225.558.01-56.85-66.869v-45.9l-22.952-41.913,126.734,41.913s41.912,63.866,53.887,68.855S2044.9,2057.749,2044.9,2057.749Z" transform="translate(-1480.084 -1831.225)" fill="url(#linear-gradient-13)" style="mix-blend-mode: overlay;isolation: isolate"/>
    <path id="Caminho_42" data-name="Caminho 42" d="M1709.619,1850.666l-29.488,51.822-.319.569-14.2,24.948-4.99,76.839-52.909,52.91h-9.72l-117.983-.02H1480l.02-.02.19-.289.379-.579.249-.389,70.053-105.838.1-.149L1575.8,1932l21.954,12.973,21.954-37.92,20.956-15.967L1709.05,1851Z" transform="translate(-1480 -1831.207)" fill="#e78d1f"/>
    <path id="Caminho_43" data-name="Caminho 43" d="M1709.619,1850.666l-29.488,51.822-.319.569-14.2,24.948-4.99,76.839-52.909,52.91h-9.72l-117.983-.02H1480l.02-.02.19-.289.379-.579.249-.389,70.053-105.838.1-.149L1575.8,1932l21.954,12.973,21.954-37.92,20.956-15.967L1709.05,1851Z" transform="translate(-1480 -1831.207)" fill="url(#linear-gradient-14)" style="mix-blend-mode: overlay;isolation: isolate"/>
    <path id="Caminho_44" data-name="Caminho 44" d="M1817.359,2057.732l-100.789-66.86-36.693-87.815.319-.569,28.92-51.492.379-.669.09-.16,8.7,15.6,44.188,79.2v45.9Z" transform="translate(-1480.065 -1831.207)" fill="#da5f26"/>
  </g>
  <g id="Grupo_18" data-name="Grupo 18" transform="translate(338.89 295.904)">
    <g id="Grupo_17" data-name="Grupo 17" transform="translate(0 0)">
      <g id="Grupo_14" data-name="Grupo 14">
        <path id="Caminho_45" data-name="Caminho 45" d="M1862.986,1689.993a21.993,21.993,0,1,0-39.417,13.412h0l17.424,27.575,17.424-27.575h0A21.889,21.889,0,0,0,1862.986,1689.993Z" transform="translate(-1819 -1668)" fill="#fff"/>
      </g>
      <g id="Grupo_16" data-name="Grupo 16">
        <g id="Grupo_15" data-name="Grupo 15" opacity="0.5">
          <path id="Caminho_46" data-name="Caminho 46" d="M1862.986,1689.993a21.993,21.993,0,1,0-39.417,13.412h0l17.424,27.575,17.424-27.575h0A21.889,21.889,0,0,0,1862.986,1689.993Z" transform="translate(-1819 -1668)" fill="#e06f22"/>
        </g>
      </g>
    </g>
    <ellipse id="Elipse_12" data-name="Elipse 12" cx="16.5" cy="15" rx="16.5" ry="15" transform="translate(5.11 7.096)" fill="#da5f26"/>
  </g>
  <g id="Grupo_23" data-name="Grupo 23" transform="translate(503.837 149.951)">
    <g id="Grupo_22" data-name="Grupo 22" transform="translate(0 0)">
      <g id="Grupo_19" data-name="Grupo 19">
        <path id="Caminho_47" data-name="Caminho 47" d="M2027.986,1543.993a21.993,21.993,0,1,0-39.417,13.412h0l17.425,27.575,17.424-27.575h0A21.889,21.889,0,0,0,2027.986,1543.993Z" transform="translate(-1984 -1522)" fill="#fff"/>
      </g>
      <g id="Grupo_21" data-name="Grupo 21">
        <g id="Grupo_20" data-name="Grupo 20" opacity="0.5">
          <path id="Caminho_48" data-name="Caminho 48" d="M2027.986,1543.993a21.993,21.993,0,1,0-39.417,13.412h0l17.425,27.575,17.424-27.575h0A21.889,21.889,0,0,0,2027.986,1543.993Z" transform="translate(-1984 -1522)" fill="#e06f22"/>
        </g>
      </g>
    </g>
    <circle id="Elipse_13" data-name="Elipse 13" cx="16" cy="16" r="16" transform="translate(6.163 6.049)" fill="#da5f26"/>
  </g>
  <g id="Grupo_28" data-name="Grupo 28" transform="translate(138.955 439.858)">
    <g id="Grupo_27" data-name="Grupo 27" transform="translate(0 0)">
      <g id="Grupo_24" data-name="Grupo 24">
        <path id="Caminho_49" data-name="Caminho 49" d="M1662.986,1833.993a21.993,21.993,0,1,0-39.417,13.412h0l17.424,27.575,17.424-27.575h0A21.89,21.89,0,0,0,1662.986,1833.993Z" transform="translate(-1619 -1812)" fill="#fff"/>
      </g>
      <g id="Grupo_26" data-name="Grupo 26">
        <g id="Grupo_25" data-name="Grupo 25" opacity="0.5">
          <path id="Caminho_50" data-name="Caminho 50" d="M1662.986,1833.993a21.993,21.993,0,1,0-39.417,13.412h0l17.424,27.575,17.424-27.575h0A21.89,21.89,0,0,0,1662.986,1833.993Z" transform="translate(-1619 -1812)" fill="#e06f22"/>
        </g>
      </g>
    </g>
    <ellipse id="Elipse_14" data-name="Elipse 14" cx="16.5" cy="17" rx="16.5" ry="17" transform="translate(5.045 6.142)" fill="#da5f26"/>
  </g>
  <g id="Grupo_33" data-name="Grupo 33" transform="translate(354.885 540.825)">
    <g id="Grupo_32" data-name="Grupo 32" transform="translate(0 0)">
      <g id="Grupo_29" data-name="Grupo 29">
        <path id="Caminho_51" data-name="Caminho 51" d="M1878.986,1934.994a21.993,21.993,0,1,0-39.417,13.411h0l17.424,27.575,17.424-27.575h0A21.888,21.888,0,0,0,1878.986,1934.994Z" transform="translate(-1835 -1913)" fill="#fff"/>
      </g>
      <g id="Grupo_31" data-name="Grupo 31">
        <g id="Grupo_30" data-name="Grupo 30" opacity="0.5">
          <path id="Caminho_52" data-name="Caminho 52" d="M1878.986,1934.994a21.993,21.993,0,1,0-39.417,13.411h0l17.424,27.575,17.424-27.575h0A21.888,21.888,0,0,0,1878.986,1934.994Z" transform="translate(-1835 -1913)" fill="#e06f22"/>
        </g>
      </g>
    </g>
    <circle id="Elipse_15" data-name="Elipse 15" cx="15.5" cy="15.5" r="15.5" transform="translate(7.115 6.175)" fill="#da5f26"/>
  </g>
  <path id="Caminho_53" data-name="Caminho 53" d="M2199.767,2182.506v91.751H1480v-28.766c41.857-37.753,173.694-67.519,341.459-77.168,37.688-2.169,77.185-3.323,117.892-3.323,28.971,0,57.342.583,84.873,1.706C2088.123,2169.3,2147.564,2174.773,2199.767,2182.506Z" transform="translate(-1480 -1373.763)" fill="#eea31c"/>
  <path id="Caminho_55" data-name="Caminho 55" d="M1913.52,2165s-79.978,4.676-79.978,24.5,126.026,22.937,126.026,39.192-249.875,44.76-249.875,44.76h307.232s73.515-6.012,73.515-42.978-195.5-32.29-195.5-44.76,50.491-19.812,50.491-19.812Z" transform="translate(-1423.974 -1372.955)" fill="#f1f0d3"/>
  <ellipse id="Elipse_16" data-name="Elipse 16" cx="6.798" cy="7.997" rx="6.798" ry="7.997" transform="translate(639.493 705.771)" fill="#4356a5"/>
  <path id="Caminho_56" data-name="Caminho 56" d="M1875,2058l46.985-69h204.434l-36.489,68.978Z" transform="translate(-1480.128 -1372.2)" fill="#4356a5"/>
  <path id="Caminho_57" data-name="Caminho 57" d="M2158.978,2057.978,2126.988,1989,2090,2057.978Z" transform="translate(-1480.198 -1372.2)" fill="#7387c6"/>
  <g id="Grupo_38" data-name="Grupo 38" transform="translate(204.934 659.786)">
    <g id="Grupo_37" data-name="Grupo 37" transform="translate(0 0)">
      <g id="Grupo_34" data-name="Grupo 34">
        <path id="Caminho_58" data-name="Caminho 58" d="M1728.986,2053.993a21.993,21.993,0,1,0-39.417,13.412h0l17.424,27.575,17.424-27.575h0A21.888,21.888,0,0,0,1728.986,2053.993Z" transform="translate(-1685 -2032)" fill="#fff"/>
      </g>
      <g id="Grupo_36" data-name="Grupo 36">
        <g id="Grupo_35" data-name="Grupo 35" opacity="0.5">
          <path id="Caminho_59" data-name="Caminho 59" d="M1728.986,2053.993a21.993,21.993,0,1,0-39.417,13.412h0l17.424,27.575,17.424-27.575h0A21.888,21.888,0,0,0,1728.986,2053.993Z" transform="translate(-1685 -2032)" fill="#e06f22"/>
        </g>
      </g>
    </g>
    <ellipse id="Elipse_17" data-name="Elipse 17" cx="16.5" cy="16" rx="16.5" ry="16" transform="translate(6.066 5.214)" fill="#da5f26"/>
  </g>
  <g id="Grupo_48" data-name="Grupo 48" transform="translate(498.839 590.808)">
    <g id="Grupo_47" data-name="Grupo 47" transform="translate(0 0)">
      <g id="Grupo_44" data-name="Grupo 44">
        <path id="Caminho_62" data-name="Caminho 62" d="M2022.986,1984.993a21.993,21.993,0,1,0-39.417,13.412h0l17.424,27.575,17.424-27.575h0A21.888,21.888,0,0,0,2022.986,1984.993Z" transform="translate(-1979 -1963)" fill="#fff"/>
      </g>
      <g id="Grupo_46" data-name="Grupo 46">
        <g id="Grupo_45" data-name="Grupo 45" opacity="0.5">
          <path id="Caminho_63" data-name="Caminho 63" d="M2022.986,1984.993a21.993,21.993,0,1,0-39.417,13.412h0l17.424,27.575,17.424-27.575h0A21.888,21.888,0,0,0,2022.986,1984.993Z" transform="translate(-1979 -1963)" fill="#e06f22"/>
        </g>
      </g>
    </g>
    <ellipse id="Elipse_19" data-name="Elipse 19" cx="15.5" cy="16" rx="15.5" ry="16" transform="translate(6.161 6.192)" fill="#da5f26"/>
  </g>
</svg>
